{
	"asset":{
		"generator":"Khronos glTF Blender I/O v4.2.70",
		"version":"2.0"
	},
	"scene":0,
	"scenes":[
		{
			"name":"Scene",
			"nodes":[
				0
			]
		}
	],
	"nodes":[
		{
			"mesh":0,
			"name":"Mesh_0",
			"rotation":[
				0.018075769767165184,
				0.7047032713890076,
				-0.7090386748313904,
				0.01818697154521942
			]
		}
	],
	"materials":[
		{
			"doubleSided":true,
			"name":"Material_0",
			"pbrMetallicRoughness":{
				"baseColorTexture":{
					"index":0
				},
				"metallicFactor":0,
				"roughnessFactor":0.800000011920929
			}
		}
	],
	"meshes":[
		{
			"name":"Mesh_0",
			"primitives":[
				{
					"attributes":{
						"POSITION":0,
						"NORMAL":1,
						"TEXCOORD_0":2
					},
					"indices":3,
					"material":0
				}
			]
		}
	],
	"textures":[
		{
			"sampler":0,
			"source":0
		}
	],
	"images":[
		{
			"mimeType":"image/jpeg",
			"name":"Image_0",
			"uri":"csm_textures/Image_0.jpg"
		}
	],
	"accessors":[
		{
			"bufferView":0,
			"componentType":5126,
			"count":12154,
			"max":[
				0.6795809864997864,
				1.0021400451660156,
				0.6808969974517822
			],
			"min":[
				-0.6747639775276184,
				-1.000440001487732,
				-0.679839015007019
			],
			"type":"VEC3"
		},
		{
			"bufferView":1,
			"componentType":5126,
			"count":12154,
			"type":"VEC3"
		},
		{
			"bufferView":2,
			"componentType":5126,
			"count":12154,
			"type":"VEC2"
		},
		{
			"bufferView":3,
			"componentType":5123,
			"count":29946,
			"type":"SCALAR"
		}
	],
	"bufferViews":[
		{
			"buffer":0,
			"byteLength":145848,
			"byteOffset":0,
			"target":34962
		},
		{
			"buffer":0,
			"byteLength":145848,
			"byteOffset":145848,
			"target":34962
		},
		{
			"buffer":0,
			"byteLength":97232,
			"byteOffset":291696,
			"target":34962
		},
		{
			"buffer":0,
			"byteLength":59892,
			"byteOffset":388928,
			"target":34963
		}
	],
	"samplers":[
		{
			"magFilter":9729,
			"minFilter":9987
		}
	],
	"buffers":[
		{
			"byteLength":448820,
			"uri":"csmlm.bin"
		}
	]
}
