{
  "asset": {
    "generator": "Khronos glTF Blender I/O v4.2.70",
    "version": "2.0"
  },
  "extensionsUsed": ["KHR_materials_specular", "KHR_materials_ior"],
  "scene": 0,
  "scenes": [
    {
      "name": "Scene",
      "nodes": [0]
    }
  ],
  "nodes": [
    {
      "mesh": 0,
      "name": "apollo_lunar_module",
      "rotation": [0.003937656059861183, 0, 0, 0.9999922513961792],
      "scale": [
        0.015949999913573265, 0.015949998050928116, 0.015949998050928116
      ]
    }
  ],
  "materials": [
    {
      "doubleSided": true,
      "extensions": {
        "KHR_materials_specular": {
          "specularColorFactor": [2.0, 2.0, 2.0]
        },
        "KHR_materials_ior": {
          "ior": 1.600000023841858
        }
      },
      "name": "aluminum_capsule_mat",
      "pbrMetallicRoughness": {
        "baseColorTexture": {
          "index": 0
        },
        "metallicRoughnessTexture": {
          "index": 1
        },
        "roughnessFactor": 0.873508870601654
      }
    },
    {
      "doubleSided": true,
      "extensions": {
        "KHR_materials_specular": {
          "specularColorFactor": [2.0, 2.0, 2.0]
        },
        "KHR_materials_ior": {
          "ior": 1.600000023841858
        }
      },
      "name": "darker_aluminum_mat",
      "pbrMetallicRoughness": {
        "baseColorTexture": {
          "index": 2
        },
        "metallicRoughnessTexture": {
          "index": 3
        },
        "roughnessFactor": 0.873508870601654
      }
    },
    {
      "doubleSided": true,
      "extensions": {
        "KHR_materials_specular": {
          "specularColorFactor": [2.0, 2.0, 2.0]
        },
        "KHR_materials_ior": {
          "ior": 1.600000023841858
        }
      },
      "name": "aluminum_pieces_mat",
      "pbrMetallicRoughness": {
        "baseColorTexture": {
          "index": 4
        },
        "metallicRoughnessTexture": {
          "index": 5
        },
        "roughnessFactor": 0.873508870601654
      }
    },
    {
      "doubleSided": true,
      "extensions": {
        "KHR_materials_specular": {
          "specularColorFactor": [2.0, 2.0, 2.0]
        },
        "KHR_materials_ior": {
          "ior": 1.600000023841858
        }
      },
      "name": "gold_mat",
      "pbrMetallicRoughness": {
        "baseColorTexture": {
          "index": 6
        },
        "metallicRoughnessTexture": {
          "index": 7
        },
        "roughnessFactor": 0.873508870601654
      }
    },
    {
      "doubleSided": true,
      "extensions": {
        "KHR_materials_specular": {
          "specularColorFactor": [2.0, 2.0, 2.0]
        },
        "KHR_materials_ior": {
          "ior": 1.600000023841858
        }
      },
      "name": "window_mat",
      "pbrMetallicRoughness": {
        "baseColorTexture": {
          "index": 8
        },
        "metallicRoughnessTexture": {
          "index": 9
        },
        "roughnessFactor": 0.2150000035762787
      }
    }
  ],
  "meshes": [
    {
      "name": "apollo_lunar_module",
      "primitives": [
        {
          "attributes": {
            "POSITION": 0,
            "NORMAL": 1,
            "TEXCOORD_0": 2
          },
          "indices": 3,
          "material": 0
        },
        {
          "attributes": {
            "POSITION": 4,
            "NORMAL": 5,
            "TEXCOORD_0": 6
          },
          "indices": 7,
          "material": 1
        },
        {
          "attributes": {
            "POSITION": 8,
            "NORMAL": 9,
            "TEXCOORD_0": 10
          },
          "indices": 11,
          "material": 2
        },
        {
          "attributes": {
            "POSITION": 12,
            "NORMAL": 13,
            "TEXCOORD_0": 14
          },
          "indices": 15,
          "material": 3
        },
        {
          "attributes": {
            "POSITION": 16,
            "NORMAL": 17,
            "TEXCOORD_0": 18
          },
          "indices": 19,
          "material": 4
        }
      ]
    }
  ],
  "textures": [
    {
      "sampler": 0,
      "source": 0
    },
    {
      "sampler": 0,
      "source": 1
    },
    {
      "sampler": 0,
      "source": 2
    },
    {
      "sampler": 0,
      "source": 3
    },
    {
      "sampler": 0,
      "source": 4
    },
    {
      "sampler": 0,
      "source": 5
    },
    {
      "sampler": 0,
      "source": 6
    },
    {
      "sampler": 0,
      "source": 7
    },
    {
      "sampler": 0,
      "source": 8
    },
    {
      "sampler": 0,
      "source": 9
    }
  ],
  "images": [
    {
      "mimeType": "image/jpeg",
      "name": "apollo_lunar_module_aluminum_capsule_mat_BaseColor",
      "uri": "apollo_lunar_module_aluminum_capsule_mat_BaseColor.jpg"
    },
    {
      "mimeType": "image/jpeg",
      "name": "apollo_lunar_module_aluminum_capsule_mat_Metallic",
      "uri": "apollo_lunar_module_aluminum_capsule_mat_Metallic.jpg"
    },
    {
      "mimeType": "image/jpeg",
      "name": "apollo_lunar_module_darker_aluminum_mat_BaseColor",
      "uri": "apollo_lunar_module_darker_aluminum_mat_BaseColor.jpg"
    },
    {
      "mimeType": "image/jpeg",
      "name": "apollo_lunar_module_darker_aluminum_mat_Metallic",
      "uri": "apollo_lunar_module_darker_aluminum_mat_Metallic.jpg"
    },
    {
      "mimeType": "image/jpeg",
      "name": "apollo_lunar_module_aluminum_pieces_mat_BaseColor",
      "uri": "apollo_lunar_module_aluminum_pieces_mat_BaseColor.jpg"
    },
    {
      "mimeType": "image/jpeg",
      "name": "apollo_lunar_module_aluminum_pieces_mat_Metallic",
      "uri": "apollo_lunar_module_aluminum_pieces_mat_Metallic.jpg"
    },
    {
      "mimeType": "image/jpeg",
      "name": "apollo_lunar_module_gold_mat_BaseColor",
      "uri": "apollo_lunar_module_gold_mat_BaseColor.jpg"
    },
    {
      "mimeType": "image/png",
      "name": "apollo_lunar_module_gold_mat_Metallic",
      "uri": "apollo_lunar_module_gold_mat_Metallic.png"
    },
    {
      "mimeType": "image/jpeg",
      "name": "apollo_lunar_module_window_mat_BaseColor",
      "uri": "apollo_lunar_module_window_mat_BaseColor.jpg"
    },
    {
      "mimeType": "image/jpeg",
      "name": "apollo_lunar_module_window_mat_Metallic",
      "uri": "apollo_lunar_module_window_mat_Metallic.jpg"
    }
  ],
  "accessors": [
    {
      "bufferView": 0,
      "componentType": 5126,
      "count": 20557,
      "max": [153.476318359375, 138.3472900390625, -203.4390869140625],
      "min": [-129.12579345703125, -125.659423828125, -398.682373046875],
      "type": "VEC3"
    },
    {
      "bufferView": 1,
      "componentType": 5126,
      "count": 20557,
      "type": "VEC3"
    },
    {
      "bufferView": 2,
      "componentType": 5126,
      "count": 20557,
      "type": "VEC2"
    },
    {
      "bufferView": 3,
      "componentType": 5123,
      "count": 59262,
      "type": "SCALAR"
    },
    {
      "bufferView": 4,
      "componentType": 5126,
      "count": 46955,
      "max": [187.87774658203125, 244.64605712890625, -24.190101623535156],
      "min": [-187.87774658203125, -187.87774658203125, -396.507080078125],
      "type": "VEC3"
    },
    {
      "bufferView": 5,
      "componentType": 5126,
      "count": 46955,
      "type": "VEC3"
    },
    {
      "bufferView": 6,
      "componentType": 5126,
      "count": 46955,
      "type": "VEC2"
    },
    {
      "bufferView": 7,
      "componentType": 5123,
      "count": 111282,
      "type": "SCALAR"
    },
    {
      "bufferView": 8,
      "componentType": 5126,
      "count": 190799,
      "max": [224.9684295654297, 224.9684295654297, -67.04965209960938],
      "min": [-224.9684295654297, -224.9684295654297, -441.0148620605469],
      "type": "VEC3"
    },
    {
      "bufferView": 9,
      "componentType": 5126,
      "count": 190799,
      "type": "VEC3"
    },
    {
      "bufferView": 10,
      "componentType": 5126,
      "count": 190799,
      "type": "VEC2"
    },
    {
      "bufferView": 11,
      "componentType": 5125,
      "count": 416064,
      "type": "SCALAR"
    },
    {
      "bufferView": 12,
      "componentType": 5126,
      "count": 100764,
      "max": [282.8658752441406, 282.8658752441406, 0],
      "min": [-282.8658752441406, -282.8658752441406, -204.56024169921875],
      "type": "VEC3"
    },
    {
      "bufferView": 13,
      "componentType": 5126,
      "count": 100764,
      "type": "VEC3"
    },
    {
      "bufferView": 14,
      "componentType": 5126,
      "count": 100764,
      "type": "VEC2"
    },
    {
      "bufferView": 15,
      "componentType": 5125,
      "count": 236736,
      "type": "SCALAR"
    },
    {
      "bufferView": 16,
      "componentType": 5126,
      "count": 1078,
      "max": [49.474822998046875, 118.69868469238281, -337.3699035644531],
      "min": [-49.474822998046875, 103.01085662841797, -365.22161865234375],
      "type": "VEC3"
    },
    {
      "bufferView": 17,
      "componentType": 5126,
      "count": 1078,
      "type": "VEC3"
    },
    {
      "bufferView": 18,
      "componentType": 5126,
      "count": 1078,
      "type": "VEC2"
    },
    {
      "bufferView": 19,
      "componentType": 5123,
      "count": 2832,
      "type": "SCALAR"
    }
  ],
  "bufferViews": [
    {
      "buffer": 0,
      "byteLength": 246684,
      "byteOffset": 0,
      "target": 34962
    },
    {
      "buffer": 0,
      "byteLength": 246684,
      "byteOffset": 246684,
      "target": 34962
    },
    {
      "buffer": 0,
      "byteLength": 164456,
      "byteOffset": 493368,
      "target": 34962
    },
    {
      "buffer": 0,
      "byteLength": 118524,
      "byteOffset": 657824,
      "target": 34963
    },
    {
      "buffer": 0,
      "byteLength": 563460,
      "byteOffset": 776348,
      "target": 34962
    },
    {
      "buffer": 0,
      "byteLength": 563460,
      "byteOffset": 1339808,
      "target": 34962
    },
    {
      "buffer": 0,
      "byteLength": 375640,
      "byteOffset": 1903268,
      "target": 34962
    },
    {
      "buffer": 0,
      "byteLength": 222564,
      "byteOffset": 2278908,
      "target": 34963
    },
    {
      "buffer": 0,
      "byteLength": 2289588,
      "byteOffset": 2501472,
      "target": 34962
    },
    {
      "buffer": 0,
      "byteLength": 2289588,
      "byteOffset": 4791060,
      "target": 34962
    },
    {
      "buffer": 0,
      "byteLength": 1526392,
      "byteOffset": 7080648,
      "target": 34962
    },
    {
      "buffer": 0,
      "byteLength": 1664256,
      "byteOffset": 8607040,
      "target": 34963
    },
    {
      "buffer": 0,
      "byteLength": 1209168,
      "byteOffset": 10271296,
      "target": 34962
    },
    {
      "buffer": 0,
      "byteLength": 1209168,
      "byteOffset": 11480464,
      "target": 34962
    },
    {
      "buffer": 0,
      "byteLength": 806112,
      "byteOffset": 12689632,
      "target": 34962
    },
    {
      "buffer": 0,
      "byteLength": 946944,
      "byteOffset": 13495744,
      "target": 34963
    },
    {
      "buffer": 0,
      "byteLength": 12936,
      "byteOffset": 14442688,
      "target": 34962
    },
    {
      "buffer": 0,
      "byteLength": 12936,
      "byteOffset": 14455624,
      "target": 34962
    },
    {
      "buffer": 0,
      "byteLength": 8624,
      "byteOffset": 14468560,
      "target": 34962
    },
    {
      "buffer": 0,
      "byteLength": 5664,
      "byteOffset": 14477184,
      "target": 34963
    }
  ],
  "samplers": [
    {
      "magFilter": 9729,
      "minFilter": 9987
    }
  ],
  "buffers": [
    {
      "byteLength": 14482848,
      "uri": "lunarmodule.bin"
    }
  ]
}
